<svg width="16" height="13" viewBox="0 0 16 13" fill="none" xmlns="http://www.w3.org/2000/svg">
<path d="M5.03186 13C11.0699 13 14.3718 7.99899 14.3718 3.66257C14.3718 3.52048 14.3689 3.37912 14.3624 3.23831C15.0033 2.77512 15.5605 2.19696 16 1.53911C15.4118 1.80036 14.7789 1.97628 14.1149 2.0556C14.7926 1.64936 15.313 1.00642 15.5585 0.240144C14.9241 0.616189 14.2217 0.889444 13.4742 1.03681C12.8749 0.398967 12.0218 0 11.0779 0C9.26483 0 7.79464 1.46979 7.79464 3.28143C7.79464 3.53904 7.82357 3.78937 7.87962 4.0297C5.1516 3.8927 2.73239 2.58665 1.11352 0.601089C0.831273 1.08593 0.668767 1.64954 0.668767 2.25044C0.668767 3.38895 1.24837 4.3941 2.12968 4.98227C1.59121 4.96571 1.08531 4.81762 0.642926 4.57166C0.642198 4.5853 0.642198 4.59913 0.642198 4.6135C0.642198 6.203 1.77392 7.52998 3.27578 7.83071C3.00008 7.90585 2.71001 7.94623 2.41047 7.94623C2.19901 7.94623 1.99338 7.92513 1.79339 7.88711C2.21121 9.1908 3.42318 10.1397 4.86007 10.1665C3.73636 11.0468 2.32094 11.5713 0.783049 11.5713C0.518272 11.5713 0.256952 11.5562 0 11.5258C1.45273 12.4566 3.17769 13 5.03186 13Z" fill="white" fill-opacity="0.4"/>
</svg>
