<svg width="14" height="15" viewBox="0 0 14 15" fill="none" xmlns="http://www.w3.org/2000/svg">
<path fill-rule="evenodd" clip-rule="evenodd" d="M0.466667 0C0.342899 0 0.2242 0.0526783 0.136683 0.146446C0.0491665 0.240214 0 0.367391 0 0.499999L0 11.5C0 11.6326 0.0491665 11.7598 0.136683 11.8535C0.2242 11.9473 0.342899 12 0.466667 12H2.33333V14.5C2.33333 14.5955 2.35889 14.6891 2.407 14.7696C2.4551 14.8501 2.52374 14.9142 2.60477 14.9541C2.68579 14.9941 2.77582 15.0084 2.86418 14.9952C2.95255 14.9821 3.03554 14.9421 3.10333 14.88L6.23933 12H10.7333C10.7947 12.0001 10.8554 11.9873 10.9121 11.9622C10.9688 11.9372 11.0203 11.9004 11.0637 11.854L13.8637 8.85398C13.907 8.80746 13.9414 8.75225 13.9647 8.69151C13.9881 8.63077 14.0001 8.56569 14 8.49998V0.499999C14 0.367391 13.9508 0.240214 13.8633 0.146446C13.7758 0.0526783 13.6571 0 13.5333 0L0.466667 0ZM9.33333 7.99998V2.99999H10.2667V7.99998H9.33333ZM6.53333 2.99999V7.99998H7.46667V2.99999H6.53333Z" fill="rgba(223, 194, 140, 1)" fill-opacity="1"/>
</svg>
