<svg width="22" height="15" viewBox="0 0 22 15" fill="none" xmlns="http://www.w3.org/2000/svg">
<path d="M20.5649 2.19816C20.4459 1.77395 20.2143 1.38989 19.8946 1.08681C19.5658 0.774411 19.1628 0.550944 18.7237 0.437503C17.0803 0.00433932 10.4962 0.00433941 10.4962 0.00433941C7.75139 -0.0268898 5.00723 0.110464 2.27924 0.415626C1.84012 0.537448 1.43791 0.765908 1.10839 1.08068C0.78461 1.39221 0.550089 1.77637 0.427578 2.19728C0.133283 3.7827 -0.00970531 5.39249 0.000540083 7.00496C-0.00996085 8.61598 0.132677 10.2252 0.427578 11.8126C0.547464 12.2318 0.781109 12.6142 1.10576 12.9231C1.43042 13.232 1.8347 13.4552 2.27924 13.5733C3.94451 14.0056 10.4962 14.0056 10.4962 14.0056C13.2445 14.0369 15.9922 13.8995 18.7237 13.5943C19.1628 13.4809 19.5658 13.2574 19.8946 12.945C20.2183 12.6361 20.4485 12.2519 20.564 11.8336C20.866 10.2488 21.0128 8.63837 21.0024 7.02509C21.0251 5.40497 20.8785 3.78692 20.5649 2.19728V2.19816ZM8.40304 10.0012V4.00957L13.881 7.00584L8.40304 10.0012Z" fill="rgba(223, 194, 140, 1)" fill-opacity="1"/>
</svg>
